# xmcd
#
# Track frame offsets:
#  210
#  14932
#  28469
#  41550
#  56575
#  69591
#  84145
#  97081
#  110303
#  125252
#  136538
#  150502
#  165545
#  180495
#  195100
#  210170
#  222788
#  234939
#  247660
#  263231
#  277634
#  292671
#  308790
#  320881
#  334067
#
# Disc length: 4636 seconds
#
# Revision: 0
# Processed by: cddbd v1.5.1PL0 Copyright (c) Steve Scherf et al.
# Submitted via: Collectorz.com_Music_Collector 6.9
#
DISCID=47121a19
DTITLE=Various Artist - The Best of Country Blues Women
DYEAR=2004
DGENRE=Blues Female Vocalist -  Blues Traditional
TTITLE0=Lottie Kimbrough (Beaman) - Regular Man Blues
TTITLE1=Lottie Kimbrough (Beaman) - Red River Blues
TTITLE2=Lottie Kimbrough (Beaman) - Sugar Daddy Blues
TTITLE3=Lottie Kimbrough (Beaman) - Low Down Painful Blues
TTITLE4=Lottie Kimbrough (Beaman) - City Of The Death
TTITLE5=Luella Miller - Dago Hill Blues
TTITLE6=Luella Miller - Pretty Man Blues
TTITLE7=Luella Miller - Down The Alley
TTITLE8=Luella Miller - Smiling Rose Blues
TTITLE9=Luella Miller - East St. Louis Blues
TTITLE10=Victoria Spivey - Black Snake Blues
TTITLE11=Victoria Spivey - Santa Fe Blues
TTITLE12=Victoria Spivey - Arkansas Road Blues
TTITLE13=Victoria Spivey - T-B Blues
TTITLE14=Victoria Spivey - Dopehead Blues
TTITLE15=Lucille Bogan - Jim Tampa Blues
TTITLE16=Lucille Bogan - Cravin' Whiskey Blues
TTITLE17=Lucille Bogan - New Way Blues
TTITLE18=Lucille Bogan - Coffee Grindin' Blues
TTITLE19=Lucille Bogan - Whiskey Selling Woman
TTITLE20=Sippie Wallace - Up The Country Blues
TTITLE21=Sippie Wallace - Shorty George Blues
TTITLE22=Sippie Wallace - Caldonia Blues
TTITLE23=Sippie Wallace - Stranger's Blues
TTITLE24=Sippie Wallace - Devil Dance Blues
EXTD=
EXTT0=
EXTT1=
EXTT2=
EXTT3=
EXTT4=
EXTT5=
EXTT6=
EXTT7=
EXTT8=
EXTT9=
EXTT10=
EXTT11=
EXTT12=
EXTT13=
EXTT14=
EXTT15=
EXTT16=
EXTT17=
EXTT18=
EXTT19=
EXTT20=
EXTT21=
EXTT22=
EXTT23=
EXTT24=
PLAYORDER=
